<svg width="32" height="32" viewBox="0 0 32 32" fill="none" xmlns="http://www.w3.org/2000/svg">
<path d="M21.3339 9.33356C21.3339 8.59718 21.9309 8.00022 22.6672 8.00022C23.4036 8.00022 24.0006 8.59718 24.0006 9.33356C24.0006 10.0699 23.4036 10.6669 22.6672 10.6669C21.9309 10.6669 21.3339 10.0699 21.3339 9.33356Z" fill="#273E53"/>
<path fill-rule="evenodd" clip-rule="evenodd" d="M16.0006 9.66689C12.5028 9.66689 9.66724 12.5024 9.66724 16.0002C9.66724 19.498 12.5028 22.3336 16.0006 22.3336C19.4984 22.3336 22.3339 19.498 22.3339 16.0002C22.3339 12.5024 19.4984 9.66689 16.0006 9.66689ZM11.6672 16.0002C11.6672 13.607 13.6073 11.6669 16.0006 11.6669C18.3938 11.6669 20.3339 13.607 20.3339 16.0002C20.3339 18.3935 18.3938 20.3336 16.0006 20.3336C13.6073 20.3336 11.6672 18.3935 11.6672 16.0002Z" fill="#273E53"/>
<path fill-rule="evenodd" clip-rule="evenodd" d="M23.0116 3.77758C18.3895 3.26099 13.6117 3.26099 8.9896 3.77758C6.30685 4.07741 4.14107 6.19076 3.82567 8.88747C3.27295 13.6132 3.27295 18.3872 3.82567 23.113C4.14107 25.8097 6.30685 27.923 8.9896 28.2229C13.6117 28.7395 18.3895 28.7395 23.0116 28.2229C25.6943 27.923 27.8601 25.8097 28.1755 23.113C28.7282 18.3872 28.7282 13.6132 28.1755 8.88747C27.8601 6.19076 25.6943 4.07741 23.0116 3.77758ZM9.21174 5.7652C13.6862 5.26512 18.315 5.26512 22.7894 5.7652C24.5629 5.96341 25.9836 7.3629 26.189 9.1198C26.7237 13.6912 26.7237 18.3093 26.189 22.8806C25.9836 24.6375 24.5629 26.037 22.7894 26.2352C18.315 26.7353 13.6862 26.7353 9.21174 26.2352C7.43827 26.037 6.01762 24.6375 5.81213 22.8806C5.27747 18.3093 5.27747 13.6912 5.81213 9.1198C6.01762 7.3629 7.43827 5.96341 9.21174 5.7652Z" fill="#273E53"/>
</svg>
